<?xml version="1.0" encoding="UTF-8"?>
<svg width="139px" height="113px" viewBox="0 0 139 113" version="1.1" xmlns="http://www.w3.org/2000/svg" xmlns:xlink="http://www.w3.org/1999/xlink">
    <!-- Generator: Sketch 45 (43475) - http://www.bohemiancoding.com/sketch -->
    <title>life</title>
    <desc>Created with Sketch.</desc>
    <defs></defs>
    <g id="Page-1" stroke="none" stroke-width="1" fill="none" fill-rule="evenodd">
        <g id="material2" transform="translate(-599.000000, -201.000000)">
            <g id="life" transform="translate(593.000000, 202.000000)">
                <g transform="translate(44.000000, 0.000000)" stroke="#F5A623" stroke-width="2">
                    <path d="M7.09452736,25.447786 C9.87064677,8.46583659 17.5563847,-0.0167504773 30.1517413,2.48322458e-05 C49.0447761,0.0251877965 52.4378109,20.8209204 52.4378109,25.447786 C51.358209,30.0746517 49.3532338,35.9352986 44.2636816,42.4129353 C42.4355044,44.7397153 40.26406,47.2008147 37.7493486,49.7962337 C36.3143436,51.277294 33.9103318,53.5972973 30.5373134,56.7562437 C24.9202896,52.4903674 20.9103394,48.8402845 18.5074627,45.805995 C16.104586,42.7717054 12.86578,37.7335545 8.79104478,30.6915423 L7.09452736,25.447786 Z M29.6119403,33.0049751 C35.063348,33.0049751 39.4825871,28.585736 39.4825871,23.1343284 C39.4825871,17.6829207 35.063348,13.2636816 29.6119403,13.2636816 C24.1605326,13.2636816 19.7412935,17.6829207 19.7412935,23.1343284 C19.7412935,28.585736 24.1605326,33.0049751 29.6119403,33.0049751 Z" id="Combined-Shape"></path>
                    <g id="Group-2" transform="translate(0.000000, 49.044776)" stroke-linecap="square">
                        <path d="M0.462686567,12.3383085 L59.0696517,12.3383085" id="Line"></path>
                        <path d="M8.17412935,0.154228856 L0.154228856,12.4925373" id="Line"></path>
                        <path d="M59.0696517,0.154228856 L51.0497512,12.4925373" id="Line" transform="translate(55.059701, 6.323383) scale(-1, 1) translate(-55.059701, -6.323383) "></path>
                    </g>
                </g>
                <text id="本地生活" font-family="STKaitiSC-Regular, Kaiti SC" font-size="36" font-weight="normal" fill="#4A4A4A">
                    <tspan x="2" y="106">本地生活</tspan>
                </text>
            </g>
        </g>
    </g>
</svg>