<?xml version="1.0" encoding="UTF-8"?>
<svg width="142px" height="112px" viewBox="0 0 142 112" version="1.1" xmlns="http://www.w3.org/2000/svg" xmlns:xlink="http://www.w3.org/1999/xlink">
    <!-- Generator: Sketch 45 (43475) - http://www.bohemiancoding.com/sketch -->
    <title>loan</title>
    <desc>Created with Sketch.</desc>
    <defs></defs>
    <g id="Page-1" stroke="none" stroke-width="1" fill="none" fill-rule="evenodd">
        <g id="material2" transform="translate(-81.000000, -422.000000)">
            <g id="loan" transform="translate(76.000000, 421.000000)">
                <text id="个人贷款" font-family="STKaitiSC-Regular, Kaiti SC" font-size="36" font-weight="normal" fill="#4A4A4A">
                    <tspan x="2" y="106">个人贷款</tspan>
                </text>
                <g id="Group-11" transform="translate(49.000000, 0.000000)">
                    <g id="Group-10" transform="translate(0.000000, 1.000000)" stroke="#F5A623" stroke-width="2">
                        <path d="M11.8288835,5.08191748 L8,5.08191748 C4.13400675,5.08191748 1,8.21592423 1,12.0819175 L1,52.0625 C1,55.9284932 4.13400675,59.0625 8,59.0625 L41.5661408,59.0625 C45.432134,59.0625 48.5661408,55.9284932 48.5661408,52.0625 L48.5661408,12.0819175 C48.5661408,8.21592423 45.432134,5.08191748 41.5661408,5.08191748 L38.3203883,5.08191748 L38.3203883,13.2457524 L11.8288835,13.2457524 L11.8288835,5.08191748 Z" id="Combined-Shape"></path>
                        <rect id="Rectangle-14" x="15.5782767" y="1" width="18.9927184" height="7.33009709"></rect>
                    </g>
                    <text id="贷" font-family="STKaitiSC-Regular, Kaiti SC" font-size="24" font-weight="normal" fill="#F5A623">
                        <tspan x="12.9951456" y="40">贷</tspan>
                    </text>
                </g>
            </g>
        </g>
    </g>
</svg>