<?xml version="1.0" encoding="UTF-8"?>
<svg width="139px" height="128px" viewBox="0 0 139 128" version="1.1" xmlns="http://www.w3.org/2000/svg" xmlns:xlink="http://www.w3.org/1999/xlink">
    <!-- Generator: Sketch 42 (36781) - http://www.bohemiancoding.com/sketch -->
    <title>safety</title>
    <desc>Created with Sketch.</desc>
    <defs>
        <path d="M61.8146341,46.2949854 L61.8146341,37.5867956 C61.8146341,33.1717464 58.2320167,29.595122 53.8126341,29.595122 L8.00200006,29.595122 C3.59060125,29.595122 0,33.1731161 0,37.5867956 L0,67.1839361 C0,71.5989853 3.58261746,75.1756098 8.00200006,75.1756098 L34.2040768,75.1756098 C30.2568145,71.5255472 27.7853659,66.302612 27.7853659,60.502439 C27.7853659,49.4675203 36.730935,40.5219512 47.7658537,40.5219512 C53.2429583,40.5219512 58.2053384,42.7257492 61.8146341,46.2949854 Z" id="path-1"></path>
        <mask id="mask-2" maskContentUnits="userSpaceOnUse" maskUnits="objectBoundingBox" x="0" y="0" width="61.8146341" height="45.5804878" fill="white">
            <use xlink:href="#path-1"></use>
        </mask>
        <path d="M12.3274855,13.4243902 C13.3910316,5.83796137 19.9109512,0 27.7853216,0 L33.4049223,0 C41.2843984,0 47.8003004,5.83658752 48.8629259,13.4243902 L49.0146341,13.4243902 L49.0146341,31.2195122 L12.1756098,31.2195122 L12.1756098,13.4243902 L12.3274855,13.4243902 Z" id="path-3"></path>
        <mask id="mask-4" maskContentUnits="userSpaceOnUse" maskUnits="objectBoundingBox" x="0" y="0" width="36.8390244" height="31.2195122" fill="white">
            <use xlink:href="#path-3"></use>
        </mask>
    </defs>
    <g id="Page-1" stroke="none" stroke-width="1" fill="none" fill-rule="evenodd">
        <g id="material2" transform="translate(-262.000000, -197.000000)">
            <g id="safety" transform="translate(258.000000, 197.000000)">
                <g transform="translate(42.000000, 0.000000)" stroke="#F6A623">
                    <use id="Combined-Shape" mask="url(#mask-2)" stroke-width="4" xlink:href="#path-1"></use>
                    <g id="Group" transform="translate(34.029268, 45.829268)" stroke-width="2">
                        <path d="M3.45836888,12.4346653 C3.75216286,11.0691275 4.27696847,9.79029039 4.9895154,8.64173328 L2.67743746,6.32965535 L6.2846728,2.72242 L8.53822719,4.97597439 C9.67936129,4.21660297 10.9579731,3.64986631 12.3283861,3.32176708 L12.3283861,0 L17.4297872,0 L17.4297872,3.22827301 C18.9613548,3.53550824 20.3869806,4.13871728 21.6454026,4.97620042 L23.8194216,2.80218133 L27.426657,6.40941667 L25.1939913,8.64208239 C25.906428,9.79054952 26.431157,11.0692659 26.7249212,12.4346653 L29.988951,12.4346653 L29.988951,17.5360664 L26.7249212,17.5360664 C26.3864516,19.109254 25.7413712,20.567368 24.8558438,21.8437719 L27.0015402,23.9894683 L23.3943049,27.5967037 L21.1214794,25.3238782 C19.9962463,25.9910056 18.7525274,26.4771146 17.4297872,26.7424587 L17.4297872,29.9707317 L12.3283861,29.9707317 L12.3283861,26.6489646 C11.0226318,26.3363458 9.80022044,25.807077 8.70066331,25.1009519 L6.2846728,27.5169424 L2.67743746,23.909707 L5.09351058,21.4936339 C4.32792878,20.3031211 3.76627778,18.9672095 3.45836888,17.5360664 L-0.0182192898,17.5360664 L-0.0182192898,12.4346653 L3.45836888,12.4346653 Z" id="Combined-Shape"></path>
                        <ellipse id="Oval-4" cx="14.9853659" cy="15.2529617" rx="4.2815331" ry="4.2815331"></ellipse>
                    </g>
                    <use id="Combined-Shape" mask="url(#mask-4)" stroke-width="4" xlink:href="#path-3"></use>
                </g>
                <text id="安全中心" font-family="STKaitiSC-Regular, Kaiti SC" font-size="36" font-weight="normal" fill="#4A4A4A">
                    <tspan x="2" y="120">安全中心</tspan>
                </text>
            </g>
        </g>
    </g>
</svg>