<?xml version="1.0" encoding="UTF-8"?>
<svg width="139px" height="114px" viewBox="0 0 139 114" version="1.1" xmlns="http://www.w3.org/2000/svg" xmlns:xlink="http://www.w3.org/1999/xlink">
    <!-- Generator: Sketch 45 (43475) - http://www.bohemiancoding.com/sketch -->
    <title>safety</title>
    <desc>Created with Sketch.</desc>
    <defs></defs>
    <g id="Page-1" stroke="none" stroke-width="1" fill="none" fill-rule="evenodd">
        <g id="material2" transform="translate(-262.000000, -202.000000)">
            <g id="safety" transform="translate(258.000000, 202.000000)">
                <g transform="translate(46.000000, 0.000000)" stroke="#F5A623" stroke-width="2">
                    <path d="M28.2319875,57.5631547 C28.8032473,58.1895994 29.4265245,58.7819638 30.0985144,59.3351867 L30.734098,57.5631547 L28.2319875,57.5631547 Z M54.5435843,33.4067129 L54.5435843,35.4594157 L56.2043864,34.7088555 C55.6768213,34.2443809 55.1222119,33.8098505 54.5435843,33.4067129 Z M54.5435843,33.4067129 C51.2586037,31.1180229 47.1995074,29.8411403 42.9200424,29.8411403 C32.4765399,29.8411403 23.9665606,37.4175177 23.9665606,46.8250045 C23.9665606,50.8135059 25.5078247,54.5758318 28.2319875,57.5631547 L8.00239092,57.5631547 C4.1338603,57.5631547 1,54.430341 1,50.5611529 L1,30.1019665 C1,26.2339536 4.13345536,23.0999647 8.00239092,23.0999647 L47.5411934,23.0999647 C51.409724,23.0999647 54.5435843,26.2327783 54.5435843,30.1019665 L54.5435843,33.4067129 Z" id="Combined-Shape"></path>
                    <g id="Group" transform="translate(29.678473, 34.890067)">
                        <path d="M3.10751986,11.1731775 C3.37150866,9.94617255 3.84307311,8.79707252 4.48333268,7.7650357 L2.40581337,5.6875164 L5.6470973,2.44623247 L7.67203022,4.47116539 C8.6973971,3.78883166 9.84629464,3.27959002 11.0776803,2.98477622 L11.0776803,0 L15.6615479,0 L15.6615479,2.90076705 C17.0377391,3.17683349 18.3187362,3.71884741 19.4494922,4.47136849 L21.4029586,2.51790206 L24.6442425,5.75918599 L22.6380791,7.76534939 C23.2782396,8.79730537 23.7497353,9.94629686 24.0136973,11.1731775 L26.9465936,11.1731775 L26.9465936,15.7570452 L24.0136973,15.7570452 C23.7095652,17.1706341 23.1299277,18.4808234 22.3342364,19.6277371 L24.2622535,21.5557542 L21.0209696,24.7970381 L18.9787206,22.7547891 C17.9676416,23.354237 16.8500971,23.7910305 15.6615479,24.0294556 L15.6615479,26.9302227 L11.0776803,26.9302227 L11.0776803,23.9454465 C9.90439381,23.6645426 8.80599518,23.1889677 7.81798732,22.5544785 L5.6470973,24.7253685 L2.40581337,21.4840846 L4.57677762,19.3131203 C3.88886354,18.2433842 3.38419163,17.0429999 3.10751986,15.7570452 L-0.016370956,15.7570452 L-0.016370956,11.1731775 L3.10751986,11.1731775 Z" id="Combined-Shape"></path>
                        <circle id="Oval-4" cx="13.4651113" cy="13.7055598" r="3.84717467"></circle>
                    </g>
                    <path d="M43.042135,22.563945 L43.042135,23.563945 L44.042135,22.563945 L43.042135,22.563945 Z M11.940403,22.563945 L10.940403,22.563945 L11.940403,23.563945 L11.940403,22.563945 Z M11.940403,13.0624956 L11.940403,12.0624956 L10.940403,12.0624956 L10.940403,13.0624956 L11.940403,13.0624956 Z M43.042135,13.0624956 L44.042135,13.0624956 L44.042135,12.0624956 L43.042135,12.0624956 L43.042135,13.0624956 Z M43.042135,13.0624956 L43.042135,22.563945 L11.940403,22.563945 L11.940403,13.0624956 L12.0293212,13.0624956 L11.9616058,11.9989545 C11.9474915,11.7772751 11.940403,11.5544628 11.940403,11.3307243 C11.940403,5.62301233 16.5583699,1 22.2626894,1 L32.7198486,1 C38.4210168,1 43.042135,5.62417418 43.042135,11.3307243 C43.042135,11.5544768 43.0350509,11.7773035 43.0209452,11.9989973 L42.9532784,13.0624956 L43.042135,13.0624956 Z" id="Combined-Shape"></path>
                </g>
                <text id="安全中心" font-family="STKaitiSC-Regular, Kaiti SC" font-size="36" font-weight="normal" fill="#4A4A4A">
                    <tspan x="2" y="106">安全中心</tspan>
                </text>
            </g>
        </g>
    </g>
</svg>